<?xml version="1.0" encoding="UTF-8" ?>
<!DOCTYPE svg PUBLIC "-//W3C//DTD SVG 1.1//EN" "http://www.w3.org/Graphics/SVG/1.1/DTD/svg11.dtd">
<svg width="229pt" height="344pt" viewBox="0 0 229 344" version="1.1" xmlns="http://www.w3.org/2000/svg">
<path fill="#042078" stroke="#042078" stroke-width="0.09375" opacity="1.00" d=" M 111.5 0.0 L 117.3 0.0 C 120.7 1.3 123.4 3.8 126.4 5.7 C 154.7 24.4 182.8 43.4 211.2 62.0 C 211.4 65.8 213.5 69.5 217.0 71.2 L 217.0 71.4 C 217.0 74.2 217.0 76.9 217.1 79.6 C 217.0 82.6 217.0 85.7 217.1 88.7 C 216.8 140.1 217.1 191.6 217.0 243.0 C 217.0 245.6 215.8 248.0 215.0 250.5 L 214.3 249.8 C 213.3 249.6 212.4 250.0 211.7 250.9 C 211.1 248.4 212.5 246.1 213.6 243.9 C 212.4 243.5 211.2 243.2 210.1 242.8 C 208.1 241.1 207.0 238.7 207.2 236.0 C 207.1 187.0 207.2 138.0 207.2 89.0 C 207.1 84.4 207.6 79.8 206.6 75.3 C 205.9 72.4 203.4 70.4 201.1 68.8 C 175.3 51.6 149.5 34.5 123.7 17.3 C 120.8 15.4 118.1 13.2 114.9 11.8 C 113.2 11.0 111.6 12.4 110.1 13.2 C 104.2 17.2 98.1 21.0 92.3 25.2 C 70.2 39.4 48.6 54.2 26.7 68.7 C 24.8 70.0 22.6 71.3 21.7 73.6 C 20.7 76.3 20.7 79.2 20.6 82.0 C 20.7 132.7 20.6 183.3 20.7 234.0 C 20.7 236.8 20.2 239.6 19.4 242.3 C 17.6 242.9 15.8 243.3 14.1 243.7 C 14.8 245.8 15.8 247.7 16.8 249.6 C 18.5 248.5 20.0 247.0 22.0 246.4 C 23.7 246.5 25.1 247.7 26.5 248.5 C 51.6 265.3 76.9 282.0 102.0 298.8 C 105.7 301.2 109.4 304.5 114.0 304.5 C 118.6 304.3 122.1 301.1 125.7 298.7 C 150.3 282.3 175.0 266.0 199.6 249.6 C 201.6 248.1 203.9 247.0 206.2 246.0 C 208.0 247.8 209.2 250.0 209.9 252.4 C 181.0 271.7 152.1 290.9 123.1 310.1 C 118.9 313.1 113.4 314.6 108.5 312.3 C 107.3 311.3 106.0 310.2 104.7 309.3 C 78.8 292.2 53.0 274.9 27.2 257.8 C 22.9 255.2 19.0 251.9 14.7 249.2 L 14.5 250.8 C 13.8 249.8 13.0 248.7 12.3 247.6 C 12.2 245.7 12.0 243.8 12.0 242.0 C 11.9 189.2 12.0 136.5 11.9 83.7 C 11.9 82.3 11.9 80.9 11.9 79.5 C 12.0 76.9 12.0 74.3 12.0 71.7 C 12.0 71.5 12.1 71.1 12.1 70.8 C 13.5 69.5 14.7 67.9 15.7 66.3 C 15.8 67.6 15.9 68.9 16.0 70.3 L 17.4 70.8 C 20.8 69.3 23.8 66.9 26.9 64.8 C 53.9 46.8 80.9 28.9 107.9 10.9 C 110.5 9.0 114.0 9.0 117.1 9.6 C 120.4 10.9 123.1 13.2 126.0 15.1 C 151.4 31.9 176.8 48.9 202.2 65.7 C 204.9 67.5 207.5 69.9 210.9 69.9 C 211.4 64.9 206.8 62.2 203.2 59.7 C 178.8 43.5 154.4 27.3 130.0 11.1 C 126.1 8.6 122.3 5.6 118.1 3.7 C 114.4 2.9 110.1 2.8 106.9 5.1 C 100.5 9.1 94.3 13.4 87.9 17.6 C 86.7 17.7 85.4 17.9 84.1 18.1 C 93.2 12.1 102.1 5.6 111.5 0.0 M 108.4 306.5 C 107.3 309.8 111.4 311.4 114.0 311.1 C 116.8 311.4 118.7 309.1 120.1 307.1 C 116.4 305.4 112.3 306.1 108.4 306.5 Z" />
<path fill="#7afffe" stroke="#7afffe" stroke-width="0.09375" opacity="1.00" d=" M 106.9 5.1 C 110.1 2.8 114.4 2.9 118.1 3.7 C 122.3 5.6 126.1 8.6 130.0 11.1 C 154.4 27.3 178.8 43.5 203.2 59.7 C 206.8 62.2 211.4 64.9 210.9 69.9 C 207.5 69.9 204.9 67.5 202.2 65.7 C 176.8 48.9 151.4 31.9 126.0 15.1 C 123.1 13.2 120.4 10.9 117.1 9.6 C 114.0 9.0 110.5 9.0 107.9 10.9 C 80.9 28.9 53.9 46.8 26.9 64.8 C 23.8 66.9 20.8 69.3 17.4 70.8 C 17.5 69.0 16.9 66.8 18.3 65.3 C 21.6 61.4 26.2 59.0 30.2 56.2 C 49.5 43.3 68.9 30.7 87.9 17.6 C 94.3 13.4 100.5 9.1 106.9 5.1 Z" />
<path fill="#0d4691" stroke="#0d4691" stroke-width="0.09375" opacity="1.00" d=" M 110.1 13.2 C 111.6 12.4 113.2 11.0 114.9 11.8 C 118.1 13.2 120.8 15.4 123.7 17.3 C 149.5 34.5 175.3 51.6 201.1 68.8 C 203.4 70.4 205.9 72.4 206.6 75.3 C 207.6 79.8 207.1 84.4 207.2 89.0 C 207.2 138.0 207.1 187.0 207.2 236.0 C 207.0 238.7 208.1 241.1 210.1 242.8 C 208.7 242.4 207.3 241.9 206.0 241.5 C 201.4 246.0 195.9 249.3 190.5 252.6 C 168.3 267.5 146.2 282.3 123.9 297.0 C 121.1 298.8 118.5 301.1 115.4 302.5 C 113.0 303.5 110.7 301.5 108.7 300.4 C 84.9 284.4 61.0 268.7 37.3 252.8 C 32.0 249.1 26.3 245.9 21.6 241.5 C 20.9 241.8 20.1 242.1 19.4 242.3 C 20.2 239.6 20.7 236.8 20.7 234.0 C 20.6 183.3 20.7 132.7 20.6 82.0 C 20.7 79.2 20.7 76.3 21.7 73.6 C 22.6 71.3 24.8 70.0 26.7 68.7 C 48.6 54.2 70.2 39.4 92.3 25.2 C 98.1 21.0 104.2 17.2 110.1 13.2 M 109.2 23.2 C 84.5 39.4 60.0 56.0 35.4 72.3 C 33.0 73.9 30.4 75.3 28.5 77.5 C 26.4 79.8 25.8 83.0 26.0 86.0 C 26.1 101.6 25.9 117.1 26.1 132.7 C 26.0 134.9 25.9 137.1 26.5 139.2 C 25.2 144.2 28.8 149.4 32.9 152.1 C 44.6 159.8 56.1 167.5 67.8 175.1 C 70.8 177.3 74.6 176.5 78.0 176.7 C 102.7 176.7 127.4 176.5 152.0 176.8 C 160.9 182.2 169.3 188.2 178.0 193.9 C 178.2 202.1 177.9 210.3 178.1 218.5 C 178.1 219.2 178.2 220.6 178.2 221.3 C 177.3 221.5 176.4 221.9 175.5 222.5 C 158.2 234.2 140.7 245.7 123.4 257.3 C 121.2 258.9 118.4 259.8 117.1 262.3 C 115.8 262.5 114.5 262.8 113.2 262.8 C 110.4 260.1 107.0 258.4 103.8 256.2 C 86.2 244.5 68.6 232.8 51.1 220.9 C 51.0 213.0 50.8 205.0 51.0 197.0 C 51.2 193.6 49.6 190.1 46.8 188.1 C 43.8 185.6 39.6 186.4 36.0 186.3 C 30.4 186.1 25.6 191.4 26.0 196.9 C 26.1 209.7 25.8 222.5 26.3 235.3 C 25.4 238.7 27.2 242.2 29.7 244.3 C 56.7 262.3 83.7 280.2 110.6 298.3 C 113.0 299.3 115.9 299.3 118.3 298.3 C 144.8 280.5 171.5 262.8 198.1 245.1 C 201.2 243.0 203.9 238.8 202.4 235.1 C 203.2 230.8 202.7 226.4 202.9 222.0 C 202.8 208.8 203.1 195.7 202.8 182.5 C 203.8 177.2 200.9 171.5 196.5 168.6 C 186.5 162.2 176.7 155.5 166.8 149.1 C 164.4 147.6 162.1 145.8 159.4 144.8 C 153.4 143.5 147.2 143.9 141.0 143.8 C 120.7 143.8 100.3 143.9 80.0 143.8 C 78.6 143.6 77.0 143.9 75.8 143.1 C 67.8 138.0 60.0 132.5 52.1 127.4 C 51.8 127.1 51.3 126.5 51.0 126.2 C 51.0 117.2 50.8 108.3 50.9 99.3 C 56.3 96.4 61.1 92.5 66.3 89.3 C 82.2 78.6 98.3 68.1 114.1 57.3 C 114.7 57.6 115.9 58.2 116.5 58.5 C 137.0 72.0 157.4 85.9 178.0 99.4 C 178.2 103.5 177.9 107.6 178.1 111.7 C 178.1 115.7 177.6 119.8 178.7 123.7 L 177.8 123.3 C 177.7 130.6 185.1 136.1 192.1 134.9 C 198.1 134.6 204.5 128.7 202.4 122.4 L 202.7 121.4 L 203.0 121.2 C 202.8 110.0 203.3 98.8 202.8 87.6 C 203.1 84.8 203.4 81.7 201.9 79.2 C 199.9 75.5 195.7 73.9 192.4 71.6 C 167.9 55.4 143.5 38.9 119.0 22.7 C 115.8 22.2 112.2 21.8 109.2 23.2 Z" />
<path fill="#0e4992" stroke="#0e4992" stroke-width="0.09375" opacity="1.00" d=" M 84.1 18.1 C 85.4 17.9 86.7 17.7 87.9 17.6 C 68.9 30.7 49.5 43.3 30.2 56.2 C 26.2 59.0 21.6 61.4 18.3 65.3 C 16.9 66.8 17.5 69.0 17.4 70.8 L 16.0 70.3 C 15.9 68.9 15.8 67.6 15.7 66.3 C 14.7 67.9 13.5 69.5 12.1 70.8 C 12.5 67.1 14.9 63.9 18.0 62.0 C 40.1 47.4 62.0 32.7 84.1 18.1 Z" />
<path fill="#c7d3d2" stroke="#c7d3d2" stroke-width="0.09375" opacity="1.00" d=" M 109.2 23.2 C 112.2 21.8 115.8 22.2 119.0 22.7 C 143.5 38.9 167.9 55.4 192.4 71.6 C 195.7 73.9 199.9 75.5 201.9 79.2 C 203.4 81.7 203.1 84.8 202.8 87.6 C 200.4 97.3 203.7 107.7 200.3 117.2 C 199.9 116.0 199.4 114.8 199.0 113.5 C 198.5 107.7 198.8 101.9 198.8 96.0 C 198.8 90.6 199.9 84.8 197.3 79.7 C 196.8 81.7 197.5 84.4 195.7 85.8 C 193.8 85.9 192.3 84.5 190.8 83.4 C 192.6 83.4 194.3 83.2 196.0 82.9 C 195.6 76.7 189.3 73.6 184.8 70.3 C 165.4 57.4 145.9 44.5 126.6 31.5 C 122.7 29.1 118.8 25.8 114.0 25.9 C 109.8 25.7 106.3 28.1 103.0 30.2 C 82.5 43.9 62.0 57.7 41.4 71.3 C 37.4 74.1 32.8 77.0 31.6 82.1 C 32.6 84.3 35.2 83.2 37.1 83.3 C 35.5 84.9 33.6 85.9 31.4 85.9 C 31.1 83.8 30.9 81.8 30.6 79.7 C 28.0 84.0 28.8 89.2 28.8 94.0 C 28.9 104.0 28.7 114.0 28.9 124.1 C 28.9 127.1 29.4 130.1 30.2 133.0 C 33.8 133.6 35.6 130.1 35.6 127.0 C 35.8 116.3 35.5 105.6 35.6 95.0 C 35.8 91.0 36.7 86.5 40.0 83.9 C 36.8 91.7 36.9 100.1 37.4 108.3 C 37.5 109.3 38.1 110.3 38.5 111.2 C 38.4 106.6 37.5 101.0 41.2 97.4 C 43.3 97.1 46.2 97.7 47.0 100.0 C 47.6 101.2 48.0 102.4 48.4 103.7 C 49.0 100.9 49.7 98.3 50.9 95.7 C 50.9 96.6 50.9 98.4 50.9 99.3 C 50.8 108.3 51.0 117.2 51.0 126.2 C 45.4 119.0 47.9 109.4 45.8 101.1 C 44.4 101.3 43.0 101.2 41.7 101.6 C 39.3 106.0 40.5 111.2 39.9 116.0 C 39.2 122.9 40.1 129.8 43.1 136.1 C 38.7 133.8 39.7 128.5 37.7 124.7 C 37.0 128.2 37.5 132.9 33.6 134.6 C 31.4 136.2 29.6 133.8 28.1 132.5 C 28.0 133.8 27.9 135.0 27.8 136.3 C 27.2 135.1 26.6 133.9 26.1 132.7 C 25.9 117.1 26.1 101.6 26.0 86.0 C 25.8 83.0 26.4 79.8 28.5 77.5 C 30.4 75.3 33.0 73.9 35.4 72.3 C 60.0 56.0 84.5 39.4 109.2 23.2 Z" />
<path fill="#ffffff" stroke="#ffffff" stroke-width="0.09375" opacity="1.00" d=" M 103.0 30.2 C 106.3 28.1 109.8 25.7 114.0 25.9 C 118.8 25.8 122.7 29.1 126.6 31.5 C 145.9 44.5 165.4 57.4 184.8 70.3 C 189.3 73.6 195.6 76.7 196.0 82.9 C 194.3 83.2 192.6 83.4 190.8 83.4 C 189.3 82.1 187.8 80.9 186.2 79.8 C 164.8 65.6 143.4 51.3 122.0 37.0 C 119.6 35.4 116.9 33.9 114.0 33.7 C 110.7 33.8 107.9 35.6 105.3 37.3 C 85.8 50.2 66.5 63.2 47.1 76.1 C 43.6 78.4 40.1 80.5 37.1 83.3 C 35.2 83.2 32.6 84.3 31.6 82.1 C 32.8 77.0 37.4 74.1 41.4 71.3 C 62.0 57.7 82.5 43.9 103.0 30.2 Z" />
<path fill="#acc1be" stroke="#acc1be" stroke-width="0.09375" opacity="1.00" d=" M 105.3 37.3 C 107.9 35.6 110.7 33.8 114.0 33.7 C 116.9 33.9 119.6 35.4 122.0 37.0 C 143.4 51.3 164.8 65.6 186.2 79.8 C 187.8 80.9 189.3 82.1 190.8 83.4 C 192.3 84.5 193.8 85.9 195.7 85.8 C 197.5 84.4 196.8 81.7 197.3 79.7 C 199.9 84.8 198.8 90.6 198.8 96.0 C 198.8 101.9 198.5 107.7 199.0 113.5 C 198.6 114.1 197.8 115.2 197.4 115.8 C 194.9 116.0 192.3 114.8 191.9 112.1 C 190.5 104.6 192.5 96.8 190.8 89.3 C 190.3 86.6 188.3 84.4 186.1 83.0 C 166.3 69.7 146.4 56.6 126.6 43.3 C 123.0 40.9 119.7 38.0 115.6 36.4 C 113.3 35.5 111.0 36.7 109.0 37.9 C 86.0 53.3 63.0 68.6 40.0 83.9 C 36.7 86.5 35.8 91.0 35.6 95.0 C 35.5 105.6 35.8 116.3 35.6 127.0 C 35.6 130.1 33.8 133.6 30.2 133.0 C 29.4 130.1 28.9 127.1 28.9 124.1 C 28.7 114.0 28.9 104.0 28.8 94.0 C 28.8 89.2 28.0 84.0 30.6 79.7 C 30.9 81.8 31.1 83.8 31.4 85.9 C 33.6 85.9 35.5 84.9 37.1 83.3 C 40.1 80.5 43.6 78.4 47.1 76.1 C 66.5 63.2 85.8 50.2 105.3 37.3 Z" />
<path fill="#cfd9d7" stroke="#cfd9d7" stroke-width="0.09375" opacity="1.00" d=" M 109.0 37.9 C 111.0 36.7 113.3 35.5 115.6 36.4 C 119.7 38.0 123.0 40.9 126.6 43.3 C 146.4 56.6 166.3 69.7 186.1 83.0 C 188.3 84.4 190.3 86.6 190.8 89.3 C 192.5 96.8 190.5 104.6 191.9 112.1 C 192.3 114.8 194.9 116.0 197.4 115.8 C 197.8 115.2 198.6 114.1 199.0 113.5 C 199.4 114.8 199.9 116.0 200.3 117.2 C 199.2 120.5 197.0 123.3 194.9 126.0 L 196.0 126.3 C 192.7 128.5 188.0 128.9 184.6 126.7 C 184.4 124.1 181.9 122.5 180.8 120.3 C 179.5 117.6 178.8 114.6 178.1 111.7 C 177.9 107.6 178.2 103.5 178.0 99.4 C 178.0 98.0 178.0 96.6 177.9 95.2 C 175.5 93.6 173.0 92.1 170.5 90.5 C 171.0 88.7 170.2 86.9 169.6 85.3 C 171.4 86.5 173.2 87.7 175.1 88.8 C 176.3 87.8 177.5 86.7 178.7 85.7 C 175.3 79.6 168.3 77.1 163.0 73.0 C 151.4 65.7 140.0 58.1 128.6 50.4 C 125.2 48.0 122.1 45.1 117.9 44.2 C 113.1 43.0 107.9 44.0 104.0 46.9 C 87.6 58.0 71.2 68.8 54.7 79.7 C 52.8 81.3 50.2 82.7 49.5 85.1 C 49.0 87.2 51.4 87.9 52.8 88.8 C 53.4 88.3 54.7 87.4 55.3 87.0 C 55.0 90.1 52.5 92.2 51.3 94.9 C 51.2 95.1 51.0 95.5 50.9 95.7 C 49.7 98.3 49.0 100.9 48.4 103.7 C 48.0 102.4 47.6 101.2 47.0 100.0 C 46.2 97.7 43.3 97.1 41.2 97.4 C 37.5 101.0 38.4 106.6 38.5 111.2 C 38.1 110.3 37.5 109.3 37.4 108.3 C 36.9 100.1 36.8 91.7 40.0 83.9 C 63.0 68.6 86.0 53.3 109.0 37.9 M 183.0 100.9 C 180.2 104.6 179.8 109.9 181.8 114.1 C 183.3 117.2 186.3 113.9 187.2 112.0 C 188.1 108.0 187.9 102.0 183.0 100.9 M 186.5 124.3 C 187.7 124.7 188.9 125.1 190.0 125.5 C 190.7 125.2 192.1 124.6 192.8 124.3 C 192.9 121.8 191.7 119.6 190.1 117.8 C 188.3 119.6 185.9 121.4 186.5 124.3 Z" />
<path fill="#9eb6b4" stroke="#9eb6b4" stroke-width="0.09375" opacity="1.00" d=" M 104.0 46.9 C 107.9 44.0 113.1 43.0 117.9 44.2 C 122.1 45.1 125.2 48.0 128.6 50.4 C 140.0 58.1 151.4 65.7 163.0 73.0 C 168.3 77.1 175.3 79.6 178.7 85.7 C 177.5 86.7 176.3 87.8 175.1 88.8 C 173.2 87.7 171.4 86.5 169.6 85.3 C 156.9 76.2 143.7 68.0 130.8 59.2 C 125.5 55.6 119.6 51.8 113.0 52.0 C 106.3 52.6 100.7 56.6 95.3 60.2 C 82.1 69.2 68.6 77.9 55.3 87.0 C 54.7 87.4 53.4 88.3 52.8 88.8 C 51.4 87.9 49.0 87.2 49.5 85.1 C 50.2 82.7 52.8 81.3 54.7 79.7 C 71.2 68.8 87.6 58.0 104.0 46.9 M 111.2 46.1 C 109.3 46.9 105.1 49.2 107.6 51.5 C 111.4 51.7 115.3 51.4 119.2 51.5 C 119.6 51.2 120.4 50.6 120.8 50.2 C 120.1 46.4 114.6 44.6 111.2 46.1 Z" />
<path fill="#6b8688" stroke="#6b8688" stroke-width="0.09375" opacity="1.00" d=" M 111.2 46.1 C 114.6 44.6 120.1 46.4 120.8 50.2 C 120.4 50.6 119.6 51.2 119.2 51.5 C 115.3 51.4 111.4 51.7 107.6 51.5 C 105.1 49.2 109.3 46.9 111.2 46.1 Z" />
<path fill="#c1cfcc" stroke="#c1cfcc" stroke-width="0.09375" opacity="1.00" d=" M 95.3 60.2 C 100.7 56.6 106.3 52.6 113.0 52.0 C 119.6 51.8 125.5 55.6 130.8 59.2 C 143.7 68.0 156.9 76.2 169.6 85.3 C 170.2 86.9 171.0 88.7 170.5 90.5 C 152.0 78.3 133.4 65.9 115.0 53.5 C 112.2 53.8 110.3 56.4 107.8 57.6 C 105.7 56.7 104.0 58.2 102.3 59.2 C 88.4 68.7 74.3 77.9 60.4 87.3 C 59.0 88.6 56.4 89.5 56.6 91.8 C 54.9 92.9 53.1 93.9 51.3 94.9 C 52.5 92.2 55.0 90.1 55.3 87.0 C 68.6 77.9 82.1 69.2 95.3 60.2 Z" />
<path fill="#070c22" stroke="#070c22" stroke-width="0.09375" opacity="1.00" d=" M 107.8 57.6 C 110.3 56.4 112.2 53.8 115.0 53.5 C 133.4 65.9 152.0 78.3 170.5 90.5 C 173.0 92.1 175.5 93.6 177.9 95.2 C 178.0 96.6 178.0 98.0 178.0 99.4 C 157.4 85.9 137.0 72.0 116.5 58.5 C 115.9 58.2 114.7 57.6 114.1 57.3 C 98.3 68.1 82.2 78.6 66.3 89.3 C 61.1 92.5 56.3 96.4 50.9 99.3 C 50.9 98.4 50.9 96.6 50.9 95.7 C 51.0 95.5 51.2 95.1 51.3 94.9 C 53.1 93.9 54.9 92.9 56.6 91.8 C 73.6 80.2 90.7 68.9 107.8 57.6 Z" />
<path fill="#ffffff" stroke="#ffffff" stroke-width="0.09375" opacity="1.00" d=" M 102.3 59.2 C 104.0 58.2 105.7 56.7 107.8 57.6 C 90.7 68.9 73.6 80.2 56.6 91.8 C 56.4 89.5 59.0 88.6 60.4 87.3 C 74.3 77.9 88.4 68.7 102.3 59.2 Z" />
<path fill="#1768a4" stroke="#1768a4" stroke-width="0.09375" opacity="1.00" d=" M 211.2 62.0 C 214.4 64.0 216.8 67.3 217.0 71.2 C 213.5 69.5 211.4 65.8 211.2 62.0 Z" />
<path fill="#040407" stroke="#040407" stroke-width="0.09375" opacity="0.12" d=" M 5.3 80.1 C 6.7 76.7 9.4 74.2 12.0 71.7 C 12.0 74.3 12.0 76.9 11.9 79.5 C 8.5 83.5 7.4 88.9 7.2 94.0 C 7.0 147.0 7.3 200.0 7.1 253.0 C 7.1 258.9 8.8 265.1 12.9 269.5 C 16.9 274.2 22.4 277.1 27.2 280.8 C 52.2 297.5 77.2 314.1 102.2 330.8 C 105.8 333.1 109.7 335.0 114.0 335.1 C 118.6 335.2 123.0 333.3 126.8 330.8 C 150.6 314.9 174.4 299.1 198.2 283.2 C 203.6 279.6 209.1 276.3 214.0 272.0 C 219.1 267.5 221.3 260.6 221.3 254.0 C 221.4 201.0 221.3 148.0 221.4 95.0 C 221.2 89.7 220.8 83.7 217.1 79.6 C 217.0 76.9 217.0 74.2 217.0 71.4 C 223.9 76.2 226.1 85.1 225.8 93.1 C 225.7 147.7 225.8 202.4 225.7 257.0 C 225.9 263.1 223.8 269.2 219.7 273.8 C 216.7 277.2 212.7 279.4 208.9 281.9 C 184.8 298.1 160.5 314.2 136.3 330.3 C 129.9 334.6 123.2 340.1 115.0 339.8 C 109.0 340.4 103.5 337.6 98.7 334.3 C 72.5 316.9 46.3 299.4 20.1 281.9 C 14.5 278.3 8.4 274.7 5.7 268.4 C 2.4 262.1 3.3 254.9 3.2 248.1 C 3.2 198.7 3.3 149.3 3.2 99.9 C 3.3 93.3 2.6 86.4 5.3 80.1 Z" />
<path fill="#08080e" stroke="#08080e" stroke-width="0.09375" opacity="0.27" d=" M 7.2 94.0 C 7.4 88.9 8.5 83.5 11.9 79.5 C 11.9 80.9 11.9 82.3 11.9 83.7 C 9.0 90.4 9.8 97.9 9.8 105.0 C 9.8 147.0 9.8 189.0 9.8 231.0 C 9.8 240.3 9.5 249.5 10.1 258.7 C 10.1 262.5 11.8 265.9 12.9 269.5 C 8.8 265.1 7.1 258.9 7.1 253.0 C 7.3 200.0 7.0 147.0 7.2 94.0 Z" />
<path fill="#090a11" stroke="#090a11" stroke-width="0.09375" opacity="0.33" d=" M 217.1 79.6 C 220.8 83.7 221.2 89.7 221.4 95.0 C 221.3 148.0 221.4 201.0 221.3 254.0 C 221.3 260.6 219.1 267.5 214.0 272.0 C 209.1 276.3 203.6 279.6 198.2 283.2 C 174.4 299.1 150.6 314.9 126.8 330.8 C 123.0 333.3 118.6 335.2 114.0 335.1 C 109.7 335.0 105.8 333.1 102.2 330.8 C 77.2 314.1 52.2 297.5 27.2 280.8 C 22.4 277.1 16.9 274.2 12.9 269.5 C 11.8 265.9 10.1 262.5 10.1 258.7 C 12.2 263.1 13.9 268.1 18.0 271.1 C 22.9 274.9 28.2 278.2 33.3 281.8 C 35.4 283.3 37.8 284.3 40.3 285.1 C 58.8 297.1 77.0 309.5 95.4 321.7 C 101.2 325.4 106.7 330.8 114.0 331.3 C 120.9 331.3 126.4 326.6 131.9 323.0 C 156.2 306.9 180.3 290.7 204.6 274.6 C 208.3 272.1 212.0 269.3 214.5 265.6 C 216.6 262.1 217.6 258.1 217.5 254.1 C 217.5 201.4 217.5 148.7 217.5 96.0 C 217.5 93.6 217.3 91.2 217.1 88.7 C 217.0 85.7 217.0 82.6 217.1 79.6 Z" />
<path fill="#0b0b13" stroke="#0b0b13" stroke-width="0.09375" opacity="0.43" d=" M 9.8 105.0 C 9.8 97.9 9.0 90.4 11.9 83.7 C 12.0 136.5 11.9 189.2 12.0 242.0 C 12.0 243.8 12.2 245.7 12.3 247.6 C 12.3 253.7 11.5 260.4 15.3 265.6 C 21.9 274.2 32.6 277.9 40.3 285.1 C 37.8 284.3 35.4 283.3 33.3 281.8 C 28.2 278.2 22.9 274.9 18.0 271.1 C 13.9 268.1 12.2 263.1 10.1 258.7 C 9.5 249.5 9.8 240.3 9.8 231.0 C 9.8 189.0 9.8 147.0 9.8 105.0 Z" />
<path fill="#b2c4c2" stroke="#b2c4c2" stroke-width="0.09375" opacity="1.00" d=" M 200.3 117.2 C 203.7 107.7 200.4 97.3 202.8 87.6 C 203.3 98.8 202.8 110.0 203.0 121.2 L 202.7 121.4 C 200.4 123.0 198.4 124.8 196.0 126.3 L 194.9 126.0 C 197.0 123.3 199.2 120.5 200.3 117.2 Z" />
<path fill="#0c0d15" stroke="#0c0d15" stroke-width="0.09375" opacity="0.60" d=" M 217.1 88.7 C 217.3 91.2 217.5 93.6 217.5 96.0 C 217.5 148.7 217.5 201.4 217.5 254.1 C 217.6 258.1 216.6 262.1 214.5 265.6 C 212.0 269.3 208.3 272.1 204.6 274.6 C 180.3 290.7 156.2 306.9 131.9 323.0 C 126.4 326.6 120.9 331.3 114.0 331.3 C 106.7 330.8 101.2 325.4 95.4 321.7 C 77.0 309.5 58.8 297.1 40.3 285.1 C 32.6 277.9 21.9 274.2 15.3 265.6 C 11.5 260.4 12.3 253.7 12.3 247.6 C 13.0 248.7 13.8 249.8 14.5 250.8 C 14.8 251.3 15.5 252.2 15.8 252.6 C 15.6 255.4 15.4 258.5 16.8 261.1 C 19.8 267.6 26.4 271.1 32.1 274.9 C 54.3 289.7 76.6 304.5 98.8 319.3 C 103.2 322.5 107.2 327.1 113.0 327.5 C 118.6 328.3 123.4 324.8 127.8 321.8 C 153.4 304.7 179.0 287.7 204.6 270.6 C 208.2 268.1 212.0 265.0 213.1 260.5 C 213.9 257.2 214.2 253.8 215.0 250.5 C 215.8 248.0 217.0 245.6 217.0 243.0 C 217.1 191.6 216.8 140.1 217.1 88.7 Z" />
<path fill="#acc1be" stroke="#acc1be" stroke-width="0.09375" opacity="1.00" d=" M 41.7 101.6 C 43.0 101.2 44.4 101.3 45.8 101.1 C 47.9 109.4 45.4 119.0 51.0 126.2 C 51.3 126.5 51.8 127.1 52.1 127.4 C 51.9 127.9 51.4 128.9 51.2 129.4 C 49.7 127.8 48.2 126.1 46.6 124.6 C 46.1 124.6 45.1 124.6 44.6 124.6 C 44.5 127.3 44.4 130.1 45.8 132.5 C 48.3 138.0 53.9 141.0 58.7 144.1 C 64.0 147.6 69.2 151.7 75.5 153.2 C 84.6 154.9 93.8 154.2 103.0 154.3 C 118.3 154.4 133.7 154.2 149.0 154.4 C 155.8 154.3 161.9 157.8 167.2 161.6 C 173.8 166.1 180.5 170.4 187.1 174.9 C 190.0 176.9 192.7 179.6 196.5 179.5 C 196.3 178.1 196.1 176.6 195.9 175.1 C 196.0 174.5 196.1 173.4 196.2 172.8 C 198.5 176.5 199.5 180.8 199.2 185.0 C 198.6 195.7 198.8 206.4 199.0 217.1 C 198.8 220.5 199.3 224.4 197.1 227.4 C 193.5 228.7 192.0 223.8 191.9 221.0 C 191.5 210.3 192.0 199.6 191.7 189.0 C 191.6 184.7 190.4 179.9 186.5 177.5 C 177.1 171.3 167.7 165.0 158.3 158.7 C 154.4 156.0 149.5 155.8 145.0 155.7 C 126.3 155.7 107.6 155.7 89.0 155.7 C 83.0 155.7 76.9 155.6 71.1 153.9 C 64.9 152.1 60.0 147.8 54.6 144.4 C 50.6 141.9 46.7 139.2 43.1 136.1 C 40.1 129.8 39.2 122.9 39.9 116.0 C 40.5 111.2 39.3 106.0 41.7 101.6 Z" />
<path fill="#adc2bf" stroke="#adc2bf" stroke-width="0.09375" opacity="1.00" d=" M 183.0 100.9 C 187.9 102.0 188.1 108.0 187.2 112.0 C 186.3 113.9 183.3 117.2 181.8 114.1 C 179.8 109.9 180.2 104.6 183.0 100.9 Z" />
<path fill="#b4c6c4" stroke="#b4c6c4" stroke-width="0.09375" opacity="1.00" d=" M 178.1 111.7 C 178.8 114.6 179.5 117.6 180.8 120.3 C 181.9 122.5 184.4 124.1 184.6 126.7 C 182.9 125.7 181.2 124.6 179.1 124.3 C 179.0 124.2 178.8 123.9 178.7 123.7 C 177.6 119.8 178.1 115.7 178.1 111.7 Z" />
<path fill="#799596" stroke="#799596" stroke-width="0.09375" opacity="1.00" d=" M 186.5 124.3 C 185.9 121.4 188.3 119.6 190.1 117.8 C 191.7 119.6 192.9 121.8 192.8 124.3 C 192.1 124.6 190.7 125.2 190.0 125.5 C 188.9 125.1 187.7 124.7 186.5 124.3 Z" />
<path fill="#ffffff" stroke="#ffffff" stroke-width="0.09375" opacity="1.00" d=" M 196.0 126.3 C 198.4 124.8 200.4 123.0 202.7 121.4 L 202.4 122.4 C 200.0 132.9 183.5 133.9 179.1 124.3 C 181.2 124.6 182.9 125.7 184.6 126.7 C 188.0 128.9 192.7 128.5 196.0 126.3 Z" />
<path fill="#070c22" stroke="#070c22" stroke-width="0.09375" opacity="1.00" d=" M 179.1 124.3 C 183.5 133.9 200.0 132.9 202.4 122.4 C 204.5 128.7 198.1 134.6 192.1 134.9 C 185.1 136.1 177.7 130.6 177.8 123.3 L 178.7 123.7 C 178.8 123.9 179.0 124.2 179.1 124.3 Z" />
<path fill="#ffffff" stroke="#ffffff" stroke-width="0.09375" opacity="1.00" d=" M 44.6 124.6 C 45.1 124.6 46.1 124.6 46.6 124.6 C 48.2 126.1 49.7 127.8 51.2 129.4 C 54.8 133.4 59.5 136.1 63.9 139.1 C 68.9 142.4 74.4 145.6 80.6 145.8 C 100.0 145.7 119.5 145.8 139.0 145.8 C 142.7 145.7 146.4 145.7 150.0 146.1 C 160.2 147.5 168.3 153.9 176.6 159.4 C 183.4 164.1 191.3 167.9 195.9 175.1 C 196.1 176.6 196.3 178.1 196.5 179.5 C 192.7 179.6 190.0 176.9 187.1 174.9 C 180.5 170.4 173.8 166.1 167.2 161.6 C 161.9 157.8 155.8 154.3 149.0 154.4 C 133.7 154.2 118.3 154.4 103.0 154.3 C 93.8 154.2 84.6 154.9 75.5 153.2 C 69.2 151.7 64.0 147.6 58.7 144.1 C 53.9 141.0 48.3 138.0 45.8 132.5 C 44.4 130.1 44.5 127.3 44.6 124.6 Z" />
<path fill="#ccd7d6" stroke="#ccd7d6" stroke-width="0.09375" opacity="1.00" d=" M 37.7 124.7 C 39.7 128.5 38.7 133.8 43.1 136.1 C 46.7 139.2 50.6 141.9 54.6 144.4 C 60.0 147.8 64.9 152.1 71.1 153.9 C 76.9 155.6 83.0 155.7 89.0 155.7 C 107.6 155.7 126.3 155.7 145.0 155.7 C 149.5 155.8 154.4 156.0 158.3 158.7 C 167.7 165.0 177.1 171.3 186.5 177.5 C 190.4 179.9 191.6 184.7 191.7 189.0 C 192.0 199.6 191.5 210.3 191.9 221.0 C 192.0 223.8 193.5 228.7 197.1 227.4 C 199.3 224.4 198.8 220.5 199.0 217.1 C 198.8 206.4 198.6 195.7 199.2 185.0 C 199.5 180.8 198.5 176.5 196.2 172.8 C 196.1 173.4 196.0 174.5 195.9 175.1 C 191.3 167.9 183.4 164.1 176.6 159.4 C 168.3 153.9 160.2 147.5 150.0 146.1 C 148.4 145.7 146.7 145.4 145.0 145.3 C 126.0 145.3 107.0 145.4 88.0 145.3 C 85.5 145.3 83.0 145.6 80.6 145.8 C 74.4 145.6 68.9 142.4 63.9 139.1 C 59.5 136.1 54.8 133.4 51.2 129.4 C 51.4 128.9 51.9 127.9 52.1 127.4 C 60.0 132.5 67.8 138.0 75.8 143.1 C 77.0 143.9 78.6 143.6 80.0 143.8 C 100.3 143.9 120.7 143.8 141.0 143.8 C 147.2 143.9 153.4 143.5 159.4 144.8 C 162.1 145.8 164.4 147.6 166.8 149.1 C 176.7 155.5 186.5 162.2 196.5 168.6 C 200.9 171.5 203.8 177.2 202.8 182.5 C 202.1 184.9 201.5 187.4 201.6 189.9 C 201.7 199.6 201.8 209.3 201.6 218.9 C 201.5 225.3 200.6 232.2 196.2 237.1 C 194.4 239.1 192.4 241.7 189.4 241.6 C 190.5 240.4 192.1 239.2 191.4 237.4 C 190.5 235.0 187.2 234.9 185.4 236.4 C 164.0 250.7 142.6 265.0 121.1 279.2 C 117.7 281.2 113.6 281.3 109.9 280.8 C 105.6 280.3 102.4 277.2 99.0 275.0 C 79.2 261.8 59.4 248.6 39.7 235.4 C 38.0 236.8 37.2 238.6 37.4 240.8 C 31.7 238.6 27.3 233.2 27.2 227.0 C 27.1 220.0 26.6 212.9 27.5 206.0 C 27.9 210.3 27.8 214.7 27.7 219.0 C 27.8 221.4 27.4 224.1 29.0 226.1 C 29.7 226.9 30.4 227.7 31.2 228.4 C 32.7 227.6 34.6 226.8 35.1 224.8 C 36.6 217.1 33.7 208.7 36.9 201.3 C 37.9 202.4 39.5 203.3 39.4 205.0 C 39.9 210.8 38.8 216.6 39.9 222.3 C 41.4 227.1 44.1 231.8 48.4 234.6 C 65.6 246.1 82.8 257.5 99.9 269.0 C 106.1 273.1 114.0 274.1 121.0 272.1 C 125.1 271.0 128.6 268.5 132.1 266.2 C 146.0 256.9 159.8 247.7 173.6 238.5 C 178.3 235.4 183.7 232.4 186.1 227.0 C 189.6 218.8 187.6 209.7 187.6 201.1 C 187.7 198.0 185.6 195.5 182.9 194.3 C 180.1 198.7 181.0 204.0 180.6 208.8 C 180.5 212.2 179.2 215.4 178.1 218.5 C 177.9 210.3 178.2 202.1 178.0 193.9 C 178.0 192.5 178.0 191.2 178.0 189.8 C 176.7 188.8 175.3 187.8 173.9 186.8 C 173.0 183.8 170.2 182.0 167.8 180.3 C 167.7 179.8 167.7 178.9 167.7 178.4 C 169.5 179.6 171.3 180.6 173.2 181.7 C 174.1 180.5 176.6 179.5 175.6 177.6 C 173.7 174.7 170.3 173.3 167.5 171.3 C 163.0 168.4 159.3 164.0 153.9 162.8 C 146.2 160.4 138.0 161.1 130.0 161.1 C 119.7 160.8 109.4 161.2 99.1 161.1 C 89.8 160.5 80.5 161.4 71.3 160.1 C 60.0 155.2 51.0 146.6 40.2 140.8 C 38.8 140.1 37.6 141.8 36.4 142.3 C 36.6 143.5 36.8 144.7 37.1 145.9 C 35.9 146.8 34.8 147.7 33.7 148.7 C 31.0 147.0 28.7 144.7 27.3 141.8 C 28.3 141.7 29.3 141.6 30.2 141.6 C 29.4 139.8 28.5 138.1 27.8 136.3 C 27.9 135.0 28.0 133.8 28.1 132.5 C 29.6 133.8 31.4 136.2 33.6 134.6 C 37.5 132.9 37.0 128.2 37.7 124.7 Z" />
<path fill="#aabfbd" stroke="#aabfbd" stroke-width="0.09375" opacity="1.00" d=" M 26.1 132.7 C 26.6 133.9 27.2 135.1 27.8 136.3 C 28.5 138.1 29.4 139.8 30.2 141.6 C 29.3 141.6 28.3 141.7 27.3 141.8 C 27.1 141.1 26.7 139.8 26.5 139.2 C 25.9 137.1 26.0 134.9 26.1 132.7 Z" />
<path fill="#070c22" stroke="#070c22" stroke-width="0.09375" opacity="1.00" d=" M 32.9 152.1 C 28.8 149.4 25.2 144.2 26.5 139.2 C 26.7 139.8 27.1 141.1 27.3 141.8 C 28.7 144.7 31.0 147.0 33.7 148.7 C 43.3 154.9 52.8 161.4 62.4 167.6 C 64.8 169.0 67.0 170.7 69.5 171.9 C 71.2 172.7 73.2 172.8 75.1 172.7 C 100.8 172.6 126.5 172.8 152.2 172.7 C 159.4 177.5 166.5 182.4 173.9 186.8 C 175.3 187.8 176.7 188.8 178.0 189.8 C 178.0 191.2 178.0 192.5 178.0 193.9 C 169.3 188.2 160.9 182.2 152.0 176.8 C 127.4 176.5 102.7 176.7 78.0 176.7 C 74.6 176.5 70.8 177.3 67.8 175.1 C 56.1 167.5 44.6 159.8 32.9 152.1 Z" />
<path fill="#9fb6b4" stroke="#9fb6b4" stroke-width="0.09375" opacity="1.00" d=" M 36.4 142.3 C 37.6 141.8 38.8 140.1 40.2 140.8 C 51.0 146.6 60.0 155.2 71.3 160.1 C 68.0 160.0 64.7 159.8 61.4 159.3 C 61.5 160.3 61.5 161.3 61.6 162.3 C 53.2 157.1 45.1 151.6 37.1 145.9 C 36.8 144.7 36.6 143.5 36.4 142.3 Z" />
<path fill="#799596" stroke="#799596" stroke-width="0.09375" opacity="1.00" d=" M 80.6 145.8 C 83.0 145.6 85.5 145.3 88.0 145.3 C 107.0 145.4 126.0 145.3 145.0 145.3 C 146.7 145.4 148.4 145.7 150.0 146.1 C 146.4 145.7 142.7 145.7 139.0 145.8 C 119.5 145.8 100.0 145.7 80.6 145.8 Z" />
<path fill="#cad6d4" stroke="#cad6d4" stroke-width="0.09375" opacity="1.00" d=" M 37.1 145.9 C 45.1 151.6 53.2 157.1 61.6 162.3 C 66.3 165.3 71.5 168.4 77.4 168.3 C 95.9 168.6 114.5 168.3 133.0 168.4 C 138.5 168.5 144.2 168.0 149.7 169.1 C 153.2 170.3 156.7 171.5 160.0 173.3 C 162.7 174.8 165.1 176.7 167.7 178.4 C 167.7 178.9 167.7 179.8 167.8 180.3 C 170.2 182.0 173.0 183.8 173.9 186.8 C 166.5 182.4 159.4 177.5 152.2 172.7 C 126.5 172.8 100.8 172.6 75.1 172.7 C 73.2 172.8 71.2 172.7 69.5 171.9 C 77.3 172.6 85.2 172.2 93.0 172.3 C 108.3 172.4 123.7 172.2 139.0 172.4 C 141.8 172.4 144.6 172.1 147.3 171.5 C 142.2 170.8 137.1 171.0 132.0 171.0 C 114.0 171.0 96.0 171.0 78.0 171.0 C 72.5 171.2 67.7 168.2 62.4 167.6 C 52.8 161.4 43.3 154.9 33.7 148.7 C 34.8 147.7 35.9 146.8 37.1 145.9 Z" />
<path fill="#8aa5a4" stroke="#8aa5a4" stroke-width="0.09375" opacity="1.00" d=" M 61.4 159.3 C 64.7 159.8 68.0 160.0 71.3 160.1 C 80.5 161.4 89.8 160.5 99.1 161.1 C 109.4 161.2 119.7 160.8 130.0 161.1 C 138.0 161.1 146.2 160.4 153.9 162.8 C 157.1 165.7 161.6 167.9 162.9 172.4 C 162.2 172.6 160.7 173.1 160.0 173.3 C 156.7 171.5 153.2 170.3 149.7 169.1 C 151.8 168.9 153.8 168.6 155.9 168.2 C 152.6 162.7 145.6 163.1 140.0 162.7 C 118.3 162.6 96.6 162.8 75.0 162.6 C 73.1 162.5 71.4 163.4 69.7 164.1 C 71.9 166.2 74.6 167.4 77.4 168.3 C 71.5 168.4 66.3 165.3 61.6 162.3 C 61.5 161.3 61.5 160.3 61.4 159.3 Z" />
<path fill="#657f81" stroke="#657f81" stroke-width="0.09375" opacity="1.00" d=" M 69.7 164.1 C 71.4 163.4 73.1 162.5 75.0 162.6 C 96.6 162.8 118.3 162.6 140.0 162.7 C 145.6 163.1 152.6 162.7 155.9 168.2 C 153.8 168.6 151.8 168.9 149.7 169.1 C 144.2 168.0 138.5 168.5 133.0 168.4 C 114.5 168.3 95.9 168.6 77.4 168.3 C 74.6 167.4 71.9 166.2 69.7 164.1 Z" />
<path fill="#9eb6b4" stroke="#9eb6b4" stroke-width="0.09375" opacity="1.00" d=" M 153.9 162.8 C 159.3 164.0 163.0 168.4 167.5 171.3 C 170.3 173.3 173.7 174.7 175.6 177.6 C 176.6 179.5 174.1 180.5 173.2 181.7 C 171.3 180.6 169.5 179.6 167.7 178.4 C 165.1 176.7 162.7 174.8 160.0 173.3 C 160.7 173.1 162.2 172.6 162.9 172.4 C 161.6 167.9 157.1 165.7 153.9 162.8 Z" />
<path fill="#f3f6f6" stroke="#f3f6f6" stroke-width="0.09375" opacity="1.00" d=" M 62.4 167.6 C 67.7 168.2 72.5 171.2 78.0 171.0 C 96.0 171.0 114.0 171.0 132.0 171.0 C 137.1 171.0 142.2 170.8 147.3 171.5 C 144.6 172.1 141.8 172.4 139.0 172.4 C 123.7 172.2 108.3 172.4 93.0 172.3 C 85.2 172.2 77.3 172.6 69.5 171.9 C 67.0 170.7 64.8 169.0 62.4 167.6 Z" />
<path fill="#c4d1cf" stroke="#c4d1cf" stroke-width="0.09375" opacity="1.00" d=" M 201.6 189.9 C 201.5 187.4 202.1 184.9 202.8 182.5 C 203.1 195.7 202.8 208.8 202.9 222.0 C 202.7 226.4 203.2 230.8 202.4 235.1 C 201.6 238.1 199.4 240.5 196.7 242.0 C 198.2 240.5 199.2 238.7 200.1 236.8 C 196.3 239.4 192.9 242.7 189.0 245.2 C 169.9 258.0 150.7 270.8 131.5 283.6 C 126.7 286.6 122.1 290.4 116.4 291.6 C 113.2 292.4 110.1 291.3 107.1 290.4 C 107.2 290.8 107.3 291.7 107.4 292.2 C 81.7 275.1 56.0 257.8 30.2 240.8 C 28.3 239.5 27.2 237.3 26.3 235.3 C 25.8 222.5 26.1 209.7 26.0 196.9 C 25.6 191.4 30.4 186.1 36.0 186.3 C 39.6 186.4 43.8 185.6 46.8 188.1 C 49.6 190.1 51.2 193.6 51.0 197.0 C 50.8 205.0 51.0 213.0 51.1 220.9 C 68.6 232.8 86.2 244.5 103.8 256.2 C 107.0 258.4 110.4 260.1 113.2 262.8 C 108.4 262.9 104.2 260.3 100.4 257.7 C 86.4 248.4 72.4 239.1 58.4 229.7 C 54.1 226.9 50.6 223.3 46.8 219.9 C 43.1 224.4 48.3 229.6 50.8 233.4 C 46.8 231.4 44.8 227.1 43.7 223.0 C 43.0 220.7 44.1 218.6 45.7 217.2 C 47.2 218.5 48.6 219.7 50.0 221.0 C 48.5 216.1 46.6 211.2 46.7 206.1 C 46.8 201.8 47.2 197.5 45.9 193.3 C 45.6 193.5 44.9 193.8 44.6 194.0 C 42.5 191.9 40.4 189.1 37.0 189.8 C 33.4 190.1 31.3 193.6 31.2 197.0 C 30.4 196.4 29.7 195.7 29.1 195.1 C 28.7 205.4 29.6 215.8 29.0 226.1 C 27.4 224.1 27.8 221.4 27.7 219.0 C 27.8 214.7 27.9 210.3 27.5 206.0 C 26.6 212.9 27.1 220.0 27.2 227.0 C 27.3 233.2 31.7 238.6 37.4 240.8 C 60.5 255.9 83.3 271.4 106.3 286.7 C 110.8 289.8 117.1 289.7 121.5 286.6 C 140.7 273.7 159.9 260.9 179.1 248.1 C 182.5 245.9 185.8 243.3 189.4 241.6 C 192.4 241.7 194.4 239.1 196.2 237.1 C 200.6 232.2 201.5 225.3 201.6 218.9 C 201.8 209.3 201.7 199.6 201.6 189.9 Z" />
<path fill="#ffffff" stroke="#ffffff" stroke-width="0.09375" opacity="1.00" d=" M 31.2 197.0 C 31.3 193.6 33.4 190.1 37.0 189.8 C 40.4 189.1 42.5 191.9 44.6 194.0 C 44.5 195.1 44.4 196.3 44.4 197.5 C 40.2 197.6 35.9 197.8 31.7 197.4 L 31.2 197.0 Z" />
<path fill="#abc0bd" stroke="#abc0bd" stroke-width="0.09375" opacity="1.00" d=" M 44.6 194.0 C 44.9 193.8 45.6 193.5 45.9 193.3 C 47.2 197.5 46.8 201.8 46.7 206.1 C 46.6 211.2 48.5 216.1 50.0 221.0 C 48.6 219.7 47.2 218.5 45.7 217.2 C 44.1 218.6 43.0 220.7 43.7 223.0 C 44.8 227.1 46.8 231.4 50.8 233.4 C 67.8 244.5 84.6 255.9 101.6 267.1 C 105.3 269.5 109.5 271.5 114.0 271.4 C 118.4 271.4 122.5 269.5 126.1 267.1 C 142.3 256.3 158.4 245.5 174.7 234.7 C 177.2 233.0 179.5 230.9 181.2 228.3 C 183.5 225.4 185.4 221.2 183.1 217.7 C 181.3 216.2 180.1 219.1 179.0 220.2 L 178.2 221.3 C 178.2 220.6 178.1 219.2 178.1 218.5 C 179.2 215.4 180.5 212.2 180.6 208.8 C 181.0 204.0 180.1 198.7 182.9 194.3 C 185.6 195.5 187.7 198.0 187.6 201.1 C 187.6 209.7 189.6 218.8 186.1 227.0 C 183.7 232.4 178.3 235.4 173.6 238.5 C 159.8 247.7 146.0 256.9 132.1 266.2 C 128.6 268.5 125.1 271.0 121.0 272.1 C 114.0 274.1 106.1 273.1 99.9 269.0 C 82.8 257.5 65.6 246.1 48.4 234.6 C 44.1 231.8 41.4 227.1 39.9 222.3 C 38.8 216.6 39.9 210.8 39.4 205.0 C 39.5 203.3 37.9 202.4 36.9 201.3 C 33.7 208.7 36.6 217.1 35.1 224.8 C 34.6 226.8 32.7 227.6 31.2 228.4 C 30.4 227.7 29.7 226.9 29.0 226.1 C 29.6 215.8 28.7 205.4 29.1 195.1 C 29.7 195.7 30.4 196.4 31.2 197.0 L 31.7 197.4 C 35.9 197.8 40.2 197.6 44.4 197.5 C 44.4 196.3 44.5 195.1 44.6 194.0 Z" />
<path fill="#d1dbd9" stroke="#d1dbd9" stroke-width="0.09375" opacity="1.00" d=" M 179.0 220.2 C 180.1 219.1 181.3 216.2 183.1 217.7 C 185.4 221.2 183.5 225.4 181.2 228.3 C 181.5 225.4 183.5 220.7 179.0 220.2 Z" />
<path fill="#ffffff" stroke="#ffffff" stroke-width="0.09375" opacity="1.00" d=" M 50.8 233.4 C 48.3 229.6 43.1 224.4 46.8 219.9 C 50.6 223.3 54.1 226.9 58.4 229.7 C 72.4 239.1 86.4 248.4 100.4 257.7 C 104.2 260.3 108.4 262.9 113.2 262.8 C 114.5 262.8 115.8 262.5 117.1 262.3 C 121.8 261.7 125.6 258.9 129.3 256.4 C 142.5 247.5 155.8 238.7 168.9 229.9 C 172.4 227.5 176.0 225.0 178.2 221.3 L 179.0 220.2 C 183.5 220.7 181.5 225.4 181.2 228.3 C 179.5 230.9 177.2 233.0 174.7 234.7 C 158.4 245.5 142.3 256.3 126.1 267.1 C 122.5 269.5 118.4 271.4 114.0 271.4 C 109.5 271.5 105.3 269.5 101.6 267.1 C 84.6 255.9 67.8 244.5 50.8 233.4 Z" />
<path fill="#c1cfcc" stroke="#c1cfcc" stroke-width="0.09375" opacity="1.00" d=" M 175.5 222.5 C 176.4 221.9 177.3 221.5 178.2 221.3 C 176.0 225.0 172.4 227.5 168.9 229.9 C 155.8 238.7 142.5 247.5 129.3 256.4 C 125.6 258.9 121.8 261.7 117.1 262.3 C 118.4 259.8 121.2 258.9 123.4 257.3 C 140.7 245.7 158.2 234.2 175.5 222.5 Z" />
<path fill="#9eb5b3" stroke="#9eb5b3" stroke-width="0.09375" opacity="1.00" d=" M 185.4 236.4 C 187.2 234.9 190.5 235.0 191.4 237.4 C 192.1 239.2 190.5 240.4 189.4 241.6 C 185.8 243.3 182.5 245.9 179.1 248.1 C 159.9 260.9 140.7 273.7 121.5 286.6 C 117.1 289.7 110.8 289.8 106.3 286.7 C 83.3 271.4 60.5 255.9 37.4 240.8 C 37.2 238.6 38.0 236.8 39.7 235.4 C 59.4 248.6 79.2 261.8 99.0 275.0 C 102.4 277.2 105.6 280.3 109.9 280.8 C 113.6 281.3 117.7 281.2 121.1 279.2 C 142.6 265.0 164.0 250.7 185.4 236.4 M 108.2 284.9 C 109.7 289.6 118.1 290.0 118.7 284.8 C 116.2 281.2 111.1 282.6 108.2 284.9 Z" />
<path fill="#070c21" stroke="#070c21" stroke-width="0.09375" opacity="1.00" d=" M 26.3 235.3 C 27.2 237.3 28.3 239.5 30.2 240.8 C 56.0 257.8 81.7 275.1 107.4 292.2 C 110.4 294.8 114.6 296.0 118.3 294.3 C 144.4 276.8 170.5 259.3 196.7 242.0 C 199.4 240.5 201.6 238.1 202.4 235.1 C 203.9 238.8 201.2 243.0 198.1 245.1 C 171.5 262.8 144.8 280.5 118.3 298.3 C 115.9 299.3 113.0 299.3 110.6 298.3 C 83.7 280.2 56.7 262.3 29.7 244.3 C 27.2 242.2 25.4 238.7 26.3 235.3 Z" />
<path fill="#ffffff" stroke="#ffffff" stroke-width="0.09375" opacity="1.00" d=" M 189.0 245.2 C 192.9 242.7 196.3 239.4 200.1 236.8 C 199.2 238.7 198.2 240.5 196.7 242.0 C 170.5 259.3 144.4 276.8 118.3 294.3 C 114.6 296.0 110.4 294.8 107.4 292.2 C 107.3 291.7 107.2 290.8 107.1 290.4 C 110.1 291.3 113.2 292.4 116.4 291.6 C 122.1 290.4 126.7 286.6 131.5 283.6 C 150.7 270.8 169.9 258.0 189.0 245.2 Z" />
<path fill="#1768a4" stroke="#1768a4" stroke-width="0.09375" opacity="1.00" d=" M 19.4 242.3 C 20.1 242.1 20.9 241.8 21.6 241.5 C 26.3 245.9 32.0 249.1 37.3 252.8 C 61.0 268.7 84.9 284.4 108.7 300.4 C 110.7 301.5 113.0 303.5 115.4 302.5 C 118.5 301.1 121.1 298.8 123.9 297.0 C 146.2 282.3 168.3 267.5 190.5 252.6 C 195.9 249.3 201.4 246.0 206.0 241.5 C 207.3 241.9 208.7 242.4 210.1 242.8 C 211.2 243.2 212.4 243.5 213.6 243.9 C 212.5 246.1 211.1 248.4 211.7 250.9 C 211.1 251.4 210.5 251.9 209.9 252.4 C 209.2 250.0 208.0 247.8 206.2 246.0 C 203.9 247.0 201.6 248.1 199.6 249.6 C 175.0 266.0 150.3 282.3 125.7 298.7 C 122.1 301.1 118.6 304.3 114.0 304.5 C 109.4 304.5 105.7 301.2 102.0 298.8 C 76.9 282.0 51.6 265.3 26.5 248.5 C 25.1 247.7 23.7 246.5 22.0 246.4 C 20.0 247.0 18.5 248.5 16.8 249.6 C 15.8 247.7 14.8 245.8 14.1 243.7 C 15.8 243.3 17.6 242.9 19.4 242.3 Z" />
<path fill="#5cdfe2" stroke="#5cdfe2" stroke-width="0.09375" opacity="1.00" d=" M 211.7 250.9 C 212.4 250.0 213.3 249.6 214.3 249.8 C 212.9 251.9 210.9 253.7 208.8 255.1 C 178.8 275.0 148.8 294.8 118.9 314.9 C 115.6 316.8 111.1 316.2 108.1 313.8 C 107.9 313.3 107.3 312.4 107.0 311.9 L 108.5 312.3 C 113.4 314.6 118.9 313.1 123.1 310.1 C 152.1 290.9 181.0 271.7 209.9 252.4 C 210.5 251.9 211.1 251.4 211.7 250.9 Z" />
<path fill="#1768a4" stroke="#1768a4" stroke-width="0.09375" opacity="1.00" d=" M 14.7 249.2 C 19.0 251.9 22.9 255.2 27.2 257.8 C 53.0 274.9 78.8 292.2 104.7 309.3 C 106.0 310.2 107.3 311.3 108.5 312.3 L 107.0 311.9 C 107.3 312.4 107.9 313.3 108.1 313.8 C 78.8 294.4 49.6 274.7 20.2 255.5 C 18.7 254.6 17.2 253.6 15.8 252.6 C 15.5 252.2 14.8 251.3 14.5 250.8 L 14.7 249.2 Z" />
<path fill="#0b0b13" stroke="#0b0b13" stroke-width="0.09375" opacity="0.84" d=" M 214.3 249.8 L 215.0 250.5 C 214.2 253.8 213.9 257.2 213.1 260.5 C 212.0 265.0 208.2 268.1 204.6 270.6 C 179.0 287.7 153.4 304.7 127.8 321.8 C 123.4 324.8 118.6 328.3 113.0 327.5 C 107.2 327.1 103.2 322.5 98.8 319.3 C 76.6 304.5 54.3 289.7 32.1 274.9 C 26.4 271.1 19.8 267.6 16.8 261.1 C 15.4 258.5 15.6 255.4 15.8 252.6 C 17.2 253.6 18.7 254.6 20.2 255.5 C 20.5 260.8 24.2 264.8 28.7 267.3 C 55.0 284.6 81.1 302.2 107.3 319.7 C 111.1 322.6 116.4 323.4 120.4 320.4 C 147.7 302.4 174.8 284.2 202.1 266.1 C 206.0 263.8 208.6 259.7 208.8 255.1 C 210.9 253.7 212.9 251.9 214.3 249.8 Z" />
<path fill="#08080f" stroke="#08080f" stroke-width="0.09375" opacity="0.98" d=" M 20.2 255.5 C 49.6 274.7 78.8 294.4 108.1 313.8 C 111.1 316.2 115.6 316.8 118.9 314.9 C 148.8 294.8 178.8 275.0 208.8 255.1 C 208.6 259.7 206.0 263.8 202.1 266.1 C 174.8 284.2 147.7 302.4 120.4 320.4 C 116.4 323.4 111.1 322.6 107.3 319.7 C 81.1 302.2 55.0 284.6 28.7 267.3 C 24.2 264.8 20.5 260.8 20.2 255.5 Z" />
<path fill="#6c8788" stroke="#6c8788" stroke-width="0.09375" opacity="1.00" d=" M 108.2 284.9 C 111.1 282.6 116.2 281.2 118.7 284.8 C 118.1 290.0 109.7 289.6 108.2 284.9 Z" />
<path fill="#03065a" stroke="#03065a" stroke-width="0.09375" opacity="1.00" d=" M 108.4 306.5 C 112.3 306.1 116.4 305.4 120.1 307.1 C 118.7 309.1 116.8 311.4 114.0 311.1 C 111.4 311.4 107.3 309.8 108.4 306.5 Z" />
</svg>
