<?xml version="1.0" encoding="UTF-8" ?>
<!DOCTYPE svg PUBLIC "-//W3C//DTD SVG 1.1//EN" "http://www.w3.org/Graphics/SVG/1.1/DTD/svg11.dtd">
<svg width="454pt" height="121pt" viewBox="0 0 454 121" version="1.1" xmlns="http://www.w3.org/2000/svg">
<path fill="#fefefe" stroke="#fefefe" stroke-width="0.09375" opacity="1.00" d=" M 161.6 5.0 C 161.3 2.5 163.8 1.2 166.0 1.3 C 170.3 1.2 174.6 1.2 179.0 1.3 C 181.1 1.2 183.7 2.5 183.4 5.0 C 183.6 12.2 183.5 19.3 183.4 26.4 C 189.6 26.2 195.9 26.4 202.1 26.3 C 204.0 26.3 206.9 26.4 207.4 28.8 C 208.2 33.5 207.5 38.3 207.8 43.0 C 208.0 45.3 206.9 48.6 204.0 48.3 C 197.2 48.4 190.3 48.3 183.4 48.3 C 183.6 53.5 183.4 58.7 183.5 64.0 C 183.4 68.5 187.3 72.9 191.9 73.0 C 196.2 73.3 200.6 72.6 204.9 73.3 C 206.7 73.6 207.8 75.2 207.7 77.0 C 207.8 81.6 207.8 86.3 207.7 91.0 C 207.9 93.0 206.3 95.3 204.1 95.0 C 195.9 95.0 187.3 95.9 179.7 92.2 C 169.1 87.5 161.8 76.5 161.5 64.9 C 161.5 59.4 161.4 53.8 161.6 48.3 C 158.4 48.5 153.2 48.9 153.6 44.1 C 152.8 45.4 152.0 46.7 150.9 47.9 C 143.6 56.6 136.4 65.5 128.9 74.2 C 132.0 73.1 135.2 71.8 137.0 69.0 C 138.3 67.3 139.5 64.6 142.0 65.0 C 144.0 65.8 145.3 67.7 146.8 69.1 C 149.6 72.0 152.7 74.6 155.2 77.8 C 156.6 79.8 154.8 82.0 153.7 83.7 C 144.6 94.7 128.5 99.1 115.0 94.1 C 102.6 90.1 93.0 78.0 92.5 64.8 C 92.2 73.2 89.4 81.6 83.3 87.4 C 78.0 92.0 71.1 95.0 64.0 95.0 C 52.0 95.0 40.0 95.0 28.0 95.0 C 25.8 95.1 23.3 93.4 23.6 91.0 C 23.6 85.6 23.4 80.3 23.7 75.0 C 24.0 73.0 26.3 72.3 28.0 72.2 C 40.4 72.0 52.7 72.4 65.1 72.0 C 70.4 71.3 70.6 62.8 65.3 61.7 C 57.6 60.8 49.7 62.2 41.9 60.9 C 31.6 59.1 22.8 51.1 20.0 41.0 C 16.3 29.0 21.9 14.9 32.9 8.9 C 37.4 6.1 42.8 4.9 48.0 4.9 C 60.4 5.0 72.7 4.9 85.1 5.0 C 87.3 4.7 88.8 7.0 88.7 9.0 C 88.6 14.2 88.9 19.5 88.5 24.6 C 88.5 27.0 85.9 27.8 83.9 27.8 C 71.3 27.9 58.6 27.6 46.0 28.0 C 40.6 28.6 40.3 37.2 45.6 38.4 C 53.8 39.1 62.1 37.7 70.1 39.3 C 81.7 41.7 91.3 52.2 91.6 64.2 C 91.5 55.4 92.8 46.2 97.9 38.9 C 105.4 27.3 120.5 21.7 133.8 24.6 C 141.5 26.3 149.1 30.3 153.8 36.7 C 153.7 33.9 153.4 30.9 154.1 28.1 C 155.9 25.8 159.1 26.3 161.6 26.4 C 161.5 19.3 161.4 12.2 161.6 5.0 M 164.6 4.3 C 164.6 12.7 164.7 21.1 164.5 29.4 C 161.9 29.4 159.4 29.4 156.8 29.4 C 156.8 34.7 156.8 40.0 156.8 45.2 C 159.4 45.2 162.0 45.2 164.6 45.2 C 164.7 51.8 164.6 58.4 164.6 65.0 C 164.7 77.1 174.1 88.4 185.8 91.1 C 192.0 92.6 198.4 91.9 204.7 92.0 C 204.7 86.7 204.7 81.4 204.7 76.1 C 200.4 76.0 196.2 76.1 191.9 76.0 C 185.7 76.0 180.3 70.2 180.4 64.0 C 180.3 57.7 180.4 51.5 180.4 45.2 C 188.5 45.2 196.6 45.2 204.7 45.2 C 204.7 40.0 204.7 34.7 204.7 29.4 C 196.6 29.4 188.5 29.4 180.5 29.4 C 180.3 21.1 180.4 12.7 180.4 4.3 C 175.1 4.3 169.9 4.3 164.6 4.3 M 22.5 27.9 C 19.9 38.7 25.7 50.7 35.6 55.6 C 43.7 60.0 53.2 57.8 62.0 58.3 C 66.4 57.8 71.3 60.4 72.0 65.0 C 73.4 70.0 69.2 75.4 64.0 75.2 C 51.5 75.3 39.1 75.2 26.7 75.2 C 26.7 80.8 26.7 86.4 26.7 92.0 C 39.5 92.0 52.3 92.1 65.1 92.0 C 76.8 91.5 87.3 82.1 88.8 70.5 C 90.4 60.1 84.9 49.0 75.4 44.4 C 66.0 39.4 54.9 42.9 44.8 41.3 C 39.0 40.0 36.7 32.0 40.7 27.7 C 42.4 25.5 45.3 24.7 48.0 24.8 C 60.5 24.7 73.1 24.8 85.6 24.8 C 85.6 19.2 85.6 13.6 85.6 8.0 C 72.4 8.0 59.2 7.9 45.9 8.0 C 34.8 8.4 24.7 17.0 22.5 27.9 M 103.1 37.1 C 92.0 49.6 92.0 70.3 103.1 82.8 C 110.9 91.4 123.7 95.2 134.9 92.1 C 142.1 90.3 148.5 85.7 152.9 79.7 C 149.1 75.7 145.2 71.9 141.4 67.9 C 138.1 74.8 130.3 78.3 123.0 76.9 C 132.8 64.6 143.0 52.6 153.1 40.5 C 149.5 35.8 144.9 31.8 139.4 29.5 C 127.3 24.1 112.0 27.2 103.1 37.1 Z" />
<path fill="#08090e" stroke="#08090e" stroke-width="0.09375" opacity="1.00" d=" M 164.6 4.3 C 169.9 4.3 175.1 4.3 180.4 4.3 C 180.4 12.7 180.3 21.1 180.5 29.4 C 188.5 29.4 196.6 29.4 204.7 29.4 C 204.7 34.7 204.7 40.0 204.7 45.2 C 196.6 45.2 188.5 45.2 180.4 45.2 C 180.4 51.5 180.3 57.7 180.4 64.0 C 180.3 70.2 185.7 76.0 191.9 76.0 C 196.2 76.1 200.4 76.0 204.7 76.1 C 204.7 81.4 204.7 86.7 204.7 92.0 C 198.4 91.9 192.0 92.6 185.8 91.1 C 174.1 88.4 164.7 77.1 164.6 65.0 C 164.6 58.4 164.7 51.8 164.6 45.2 C 162.0 45.2 159.4 45.2 156.8 45.2 C 156.8 40.0 156.8 34.7 156.8 29.4 C 159.4 29.4 161.9 29.4 164.5 29.4 C 164.7 21.1 164.6 12.7 164.6 4.3 Z" />
<path fill="#fefefe" stroke="#fefefe" stroke-width="0.09375" opacity="1.00" d=" M 224.7 13.6 C 232.2 7.4 242.3 4.1 252.0 5.1 C 261.3 6.1 270.3 10.5 276.3 17.7 C 282.0 24.4 285.1 33.2 285.1 42.0 C 285.1 58.4 285.1 74.8 285.1 91.1 C 285.1 92.6 284.9 94.7 283.1 94.9 C 277.3 95.2 271.6 95.0 265.8 95.0 C 263.7 95.2 262.1 93.0 262.3 91.0 C 262.2 86.8 262.2 82.5 262.3 78.2 C 253.0 78.3 243.8 78.3 234.6 78.2 C 234.6 82.5 234.7 86.7 234.6 90.9 C 234.7 92.8 233.4 95.3 231.1 95.0 C 225.4 95.0 219.6 95.2 213.9 94.9 C 211.6 94.5 211.9 91.8 211.8 90.0 C 211.8 74.1 211.8 58.1 211.8 42.1 C 211.7 31.3 216.5 20.6 224.7 13.6 M 226.3 16.3 C 219.0 22.7 214.8 32.3 214.9 42.0 C 214.8 58.7 214.8 75.4 214.9 92.0 C 220.4 92.0 226.0 92.2 231.6 91.9 C 231.4 86.3 231.5 80.8 231.5 75.2 C 242.8 75.2 254.1 75.2 265.3 75.2 C 265.4 80.8 265.3 86.4 265.3 92.0 C 270.9 92.1 276.5 92.1 282.1 92.0 C 282.1 75.0 282.2 58.0 282.1 41.0 C 281.9 28.8 274.5 16.9 263.4 11.5 C 251.5 5.4 236.2 7.5 226.3 16.3 Z" />
<path fill="#08090e" stroke="#08090e" stroke-width="0.09375" opacity="1.00" d=" M 22.5 27.9 C 24.7 17.0 34.8 8.4 45.9 8.0 C 59.2 7.9 72.4 8.0 85.6 8.0 C 85.6 13.6 85.6 19.2 85.6 24.8 C 73.1 24.8 60.5 24.7 48.0 24.8 C 45.3 24.7 42.4 25.5 40.7 27.7 C 36.7 32.0 39.0 40.0 44.8 41.3 C 54.9 42.9 66.0 39.4 75.4 44.4 C 84.9 49.0 90.4 60.1 88.8 70.5 C 87.3 82.1 76.8 91.5 65.1 92.0 C 52.3 92.1 39.5 92.0 26.7 92.0 C 26.7 86.4 26.7 80.8 26.7 75.2 C 39.1 75.2 51.5 75.3 64.0 75.2 C 69.2 75.4 73.4 70.0 72.0 65.0 C 71.3 60.4 66.4 57.8 62.0 58.3 C 53.2 57.8 43.7 60.0 35.6 55.6 C 25.7 50.7 19.9 38.7 22.5 27.9 Z" />
<path fill="#073089" stroke="#073089" stroke-width="0.09375" opacity="1.00" d=" M 226.3 16.3 C 236.2 7.5 251.5 5.4 263.4 11.5 C 274.5 16.9 281.9 28.8 282.1 41.0 C 282.2 58.0 282.1 75.0 282.1 92.0 C 276.5 92.1 270.9 92.1 265.3 92.0 C 265.3 86.4 265.4 80.8 265.3 75.2 C 254.1 75.2 242.8 75.2 231.5 75.2 C 231.5 80.8 231.4 86.3 231.6 91.9 C 226.0 92.2 220.4 92.0 214.9 92.0 C 214.8 75.4 214.8 58.7 214.9 42.0 C 214.8 32.3 219.0 22.7 226.3 16.3 M 231.8 39.0 C 231.2 45.5 231.7 52.0 231.5 58.5 C 242.8 58.5 254.1 58.5 265.3 58.5 C 265.2 52.3 265.6 46.1 265.2 40.0 C 264.6 31.8 257.2 24.9 249.0 24.8 C 240.7 24.3 232.9 30.9 231.8 39.0 Z" />
<path fill="#fefefe" stroke="#fefefe" stroke-width="0.09375" opacity="1.00" d=" M 305.5 32.6 C 311.7 27.8 319.0 24.1 326.9 23.9 C 335.7 23.9 344.6 26.9 351.0 33.0 C 366.3 47.0 366.0 74.1 350.7 87.9 C 340.8 96.3 325.8 99.3 314.2 92.8 C 314.2 100.4 314.4 108.1 314.2 115.8 C 314.0 118.3 311.1 119.1 309.1 119.0 C 304.2 118.8 299.4 119.3 294.6 118.7 C 292.4 118.4 292.1 115.9 292.1 114.1 C 292.1 86.7 292.1 59.3 292.1 31.9 C 292.1 30.3 292.2 28.6 293.2 27.2 C 294.8 26.0 297.0 26.1 298.9 26.3 C 302.0 27.0 303.7 30.1 305.5 32.6 M 305.3 36.8 C 303.4 34.7 301.7 32.3 299.7 30.2 C 298.7 28.7 296.6 29.5 295.1 29.3 C 295.1 58.2 295.1 87.0 295.1 115.9 C 300.5 115.9 305.8 115.9 311.2 115.9 C 311.2 106.5 311.2 97.2 311.2 87.8 C 315.6 90.1 320.0 92.6 325.0 93.2 C 336.0 94.1 347.7 89.2 353.7 79.7 C 361.5 67.7 361.2 50.8 352.7 39.3 C 346.6 31.0 336.1 26.5 325.9 27.0 C 318.1 27.6 311.0 31.6 305.3 36.8 Z" />
<path fill="#fefefe" stroke="#fefefe" stroke-width="0.09375" opacity="1.00" d=" M 378.5 32.6 C 384.4 28.0 391.4 24.4 399.0 24.0 C 409.0 23.6 419.3 27.5 426.1 35.0 C 438.8 49.0 438.3 72.7 425.4 86.4 C 415.6 95.9 399.5 99.6 387.2 92.8 C 387.2 100.3 387.3 107.7 387.2 115.2 C 387.4 118.0 384.4 119.2 382.1 119.0 C 377.2 118.8 372.3 119.3 367.5 118.7 C 365.3 118.4 365.1 115.8 365.1 114.1 C 365.1 86.7 365.1 59.3 365.1 31.9 C 365.1 30.3 365.2 28.6 366.2 27.2 C 367.8 26.0 370.0 26.1 371.9 26.3 C 375.0 27.0 376.7 30.1 378.5 32.6 M 378.3 36.8 C 376.2 34.5 374.4 31.9 372.2 29.6 C 370.9 29.1 369.4 29.4 368.1 29.3 C 368.1 58.2 368.1 87.0 368.1 115.9 C 373.5 115.9 378.8 115.9 384.2 115.9 C 384.2 106.5 384.2 97.2 384.2 87.8 C 388.6 90.1 393.1 92.6 398.1 93.2 C 409.1 94.1 420.7 89.1 426.7 79.7 C 434.5 67.7 434.2 50.8 425.7 39.3 C 419.6 31.0 409.1 26.6 399.0 27.0 C 391.1 27.6 384.0 31.6 378.3 36.8 Z" />
<path fill="#fefefe" stroke="#fefefe" stroke-width="0.09375" opacity="1.00" d=" M 231.8 39.0 C 232.9 30.9 240.7 24.3 249.0 24.8 C 257.2 24.9 264.6 31.8 265.2 40.0 C 265.6 46.1 265.2 52.3 265.3 58.5 C 254.1 58.5 242.8 58.5 231.5 58.5 C 231.7 52.0 231.2 45.5 231.8 39.0 M 237.8 32.9 C 232.4 39.3 235.6 48.1 234.5 55.5 C 243.7 55.2 253.1 55.4 262.4 55.4 C 261.4 47.8 264.5 38.7 258.7 32.4 C 253.5 26.1 242.7 26.4 237.8 32.9 Z" />
<path fill="#08090e" stroke="#08090e" stroke-width="0.09375" opacity="1.00" d=" M 103.1 37.1 C 112.0 27.2 127.3 24.1 139.4 29.5 C 144.9 31.8 149.5 35.8 153.1 40.5 C 143.0 52.6 132.8 64.6 123.0 76.9 C 130.3 78.3 138.1 74.8 141.4 67.9 C 145.2 71.9 149.1 75.7 152.9 79.7 C 148.5 85.7 142.1 90.3 134.9 92.1 C 123.7 95.2 110.9 91.4 103.1 82.8 C 92.0 70.3 92.0 49.6 103.1 37.1 M 116.1 47.1 C 110.4 52.5 109.9 61.4 112.5 68.4 C 118.9 60.2 125.2 51.9 131.3 43.4 C 126.0 42.4 120.1 43.2 116.1 47.1 Z" />
<path fill="#073089" stroke="#073089" stroke-width="0.09375" opacity="1.00" d=" M 305.3 36.8 C 311.0 31.6 318.1 27.6 325.9 27.0 C 336.1 26.5 346.6 31.0 352.7 39.3 C 361.2 50.8 361.5 67.7 353.7 79.7 C 347.7 89.2 336.0 94.1 325.0 93.2 C 320.0 92.6 315.6 90.1 311.2 87.8 C 311.2 97.2 311.2 106.5 311.2 115.9 C 305.8 115.9 300.5 115.9 295.1 115.9 C 295.1 87.0 295.1 58.2 295.1 29.3 C 296.6 29.5 298.7 28.7 299.7 30.2 C 301.7 32.3 303.4 34.7 305.3 36.8 M 322.5 43.7 C 310.7 47.0 307.8 63.7 315.8 72.2 C 320.5 77.5 328.9 78.6 335.0 75.2 C 343.4 70.7 345.4 58.9 341.1 51.0 C 337.7 44.4 329.4 41.6 322.5 43.7 Z" />
<path fill="#073089" stroke="#073089" stroke-width="0.09375" opacity="1.00" d=" M 378.3 36.8 C 384.0 31.6 391.1 27.6 399.0 27.0 C 409.1 26.6 419.6 31.0 425.7 39.3 C 434.2 50.8 434.5 67.7 426.7 79.7 C 420.7 89.1 409.1 94.1 398.1 93.2 C 393.1 92.6 388.6 90.1 384.2 87.8 C 384.2 97.2 384.2 106.5 384.2 115.9 C 378.8 115.9 373.5 115.9 368.1 115.9 C 368.1 87.0 368.1 58.2 368.1 29.3 C 369.4 29.4 370.9 29.1 372.2 29.6 C 374.4 31.9 376.2 34.5 378.3 36.8 M 395.5 43.7 C 383.7 47.0 380.7 63.7 388.8 72.2 C 393.8 77.9 403.2 78.7 409.3 74.3 C 417.0 69.0 418.4 57.3 413.3 49.7 C 409.6 43.9 401.9 41.8 395.5 43.7 Z" />
<path fill="#fefefe" stroke="#fefefe" stroke-width="0.09375" opacity="1.00" d=" M 116.1 47.1 C 120.1 43.2 126.0 42.4 131.3 43.4 C 125.2 51.9 118.9 60.2 112.5 68.4 C 109.9 61.4 110.4 52.5 116.1 47.1 M 114.0 61.5 C 117.9 56.4 121.7 51.2 125.7 46.0 C 118.1 46.6 113.1 54.3 114.0 61.5 Z" />
<path fill="#fefefe" stroke="#fefefe" stroke-width="0.09375" opacity="1.00" d=" M 322.5 43.7 C 329.4 41.6 337.7 44.4 341.1 51.0 C 345.4 58.9 343.4 70.7 335.0 75.2 C 328.9 78.6 320.5 77.5 315.8 72.2 C 307.8 63.7 310.7 47.0 322.5 43.7 M 323.4 46.5 C 314.7 49.0 312.0 60.5 316.3 67.7 C 319.5 74.1 328.5 76.0 334.3 72.0 C 341.9 67.0 342.4 54.4 335.3 48.8 C 332.1 46.0 327.4 45.5 323.4 46.5 Z" />
<path fill="#fefefe" stroke="#fefefe" stroke-width="0.09375" opacity="1.00" d=" M 395.5 43.7 C 401.9 41.8 409.6 43.9 413.3 49.7 C 418.4 57.3 417.0 69.0 409.3 74.3 C 403.2 78.7 393.8 77.9 388.8 72.2 C 380.7 63.7 383.7 47.0 395.5 43.7 M 396.4 46.5 C 387.7 49.0 385.0 60.6 389.4 67.8 C 392.6 74.1 401.6 76.0 407.3 72.0 C 414.9 67.0 415.4 54.4 408.3 48.8 C 405.1 46.0 400.4 45.5 396.4 46.5 Z" />
</svg>
